<?xml version="1.0" standalone="no"?>
<!DOCTYPE svg PUBLIC "-//W3C//DTD SVG 20010904//EN"
 "http://www.w3.org/TR/2001/REC-SVG-20010904/DTD/svg10.dtd">
<svg version="1.0" xmlns="http://www.w3.org/2000/svg"
 width="872.000000pt" height="872.000000pt" viewBox="0 0 872.000000 872.000000"
 preserveAspectRatio="xMidYMid meet">
<metadata>
Created by potrace 1.14, written by Peter Selinger 2001-2017
</metadata>
<g transform="translate(0.000000,872.000000) scale(0.100000,-0.100000)"
fill="#000000" stroke="none">
<path d="M2415 7234 c-303 -40 -554 -126 -820 -282 -33 -19 -68 -42 -77 -50
-10 -8 -18 -11 -18 -6 0 5 -4 4 -8 -1 -4 -6 -38 -33 -77 -60 -38 -27 -72 -51
-75 -54 -3 -3 -27 -24 -55 -46 -137 -110 -344 -316 -450 -450 -22 -27 -43 -51
-47 -53 -5 -2 -8 -8 -8 -13 0 -8 -14 -28 -45 -63 -6 -6 -38 -54 -72 -106 -35
-52 -67 -100 -73 -107 -5 -7 -10 -14 -10 -17 0 -2 -21 -40 -46 -82 -26 -43
-59 -103 -73 -134 -15 -30 -33 -64 -39 -75 -6 -11 -25 -51 -42 -90 -17 -38
-35 -78 -40 -87 -6 -10 -10 -22 -10 -27 0 -5 -10 -31 -22 -58 -12 -26 -22 -50
-22 -53 -1 -3 -9 -27 -19 -55 -10 -27 -20 -54 -22 -60 -1 -5 -3 -13 -4 -17 -2
-4 -11 -31 -22 -60 -11 -29 -22 -62 -24 -73 -1 -11 -12 -49 -23 -85 -18 -60
-31 -108 -38 -136 -1 -7 -10 -45 -19 -85 -9 -41 -19 -85 -21 -99 -2 -14 -7
-36 -10 -50 -9 -38 -11 -51 -18 -100 -3 -25 -8 -56 -11 -70 -3 -14 -7 -38 -9
-55 -2 -16 -6 -48 -10 -70 -3 -22 -8 -67 -11 -100 -3 -33 -9 -94 -13 -135 -8
-91 -8 -685 1 -755 3 -27 9 -72 12 -100 12 -96 66 -361 82 -405 3 -8 7 -20 8
-26 4 -19 46 -137 59 -169 45 -103 81 -182 91 -195 6 -8 20 -34 31 -57 10 -24
22 -43 27 -43 4 0 7 -5 7 -10 0 -12 91 -153 102 -158 4 -2 17 -19 28 -37 41
-66 292 -325 316 -325 3 0 25 -16 48 -35 24 -19 46 -35 49 -35 3 0 23 -11 43
-25 81 -55 305 -150 398 -170 14 -3 36 -7 49 -10 12 -3 33 -7 47 -10 73 -16
132 -20 305 -20 167 0 275 7 325 20 8 2 32 6 54 10 49 7 237 54 251 63 5 3 19
8 30 9 11 2 29 7 40 13 11 5 72 29 135 53 101 39 212 89 275 124 49 28 151 88
160 95 6 4 57 42 115 85 58 42 116 86 130 99 14 12 52 46 85 75 88 78 345 338
345 349 0 6 4 10 8 10 4 0 24 22 45 49 l36 50 -37 35 c-20 19 -51 47 -69 63
-17 15 -62 56 -100 90 -37 34 -81 73 -97 86 l-28 25 -62 -59 c-33 -33 -70 -68
-81 -78 -17 -16 -105 -85 -217 -171 -14 -11 -31 -20 -37 -20 -6 0 -11 -4 -11
-9 0 -5 -14 -14 -31 -21 -17 -7 -36 -18 -42 -24 -38 -36 -321 -154 -407 -170
-14 -3 -48 -9 -76 -15 -106 -21 -269 -29 -354 -17 -137 19 -294 98 -405 204
-52 49 -145 155 -145 165 0 3 -17 32 -38 64 -32 49 -58 104 -98 208 -10 27
-10 26 -18 60 -4 17 -10 37 -13 45 -4 8 -7 17 -8 20 -4 14 -16 68 -20 90 -3
14 -9 48 -15 75 -30 147 -44 360 -44 630 1 189 10 439 18 505 2 14 7 68 11
120 4 52 9 104 11 115 4 20 14 89 19 135 13 117 54 329 99 515 18 75 65 233
88 295 10 30 21 60 22 65 4 12 9 27 49 130 81 214 260 536 363 655 195 227
350 309 584 308 109 0 239 -20 320 -50 30 -11 65 -22 78 -25 12 -3 22 -9 22
-13 0 -4 10 -10 21 -13 19 -5 21 -11 15 -55 -3 -28 -12 -81 -20 -119 -8 -37
-17 -84 -20 -103 -3 -19 -8 -46 -11 -60 -5 -25 -42 -224 -51 -270 -2 -14 -9
-47 -14 -75 -5 -27 -12 -65 -15 -84 -3 -19 -8 -37 -10 -41 -5 -9 80 -90 94
-90 5 0 11 -3 13 -7 18 -42 391 -209 528 -238 8 -1 35 -8 60 -15 49 -13 56
-15 115 -24 97 -15 120 -18 181 -21 l65 -3 45 61 c24 34 48 67 52 72 32 41
109 222 131 310 21 82 34 211 34 325 -1 164 -51 323 -144 461 -43 65 -229 259
-247 259 -6 0 -12 4 -14 8 -7 19 -167 118 -262 163 -160 75 -299 118 -486 149
-30 5 -71 12 -90 15 -40 8 -489 15 -535 9z"/>
<path d="M6648 7235 c-2 -2 -39 -6 -83 -9 -123 -8 -280 -23 -310 -30 -11 -2
-45 -7 -75 -10 -30 -4 -66 -8 -80 -11 -14 -2 -41 -6 -60 -9 -19 -3 -80 -14
-134 -25 -55 -11 -103 -18 -108 -15 -4 3 -8 1 -8 -4 0 -5 -6 -9 -12 -9 -18 -1
-56 -9 -108 -23 -25 -7 -54 -14 -65 -17 -87 -19 -86 -18 -97 -108 -2 -17 30
-75 52 -95 5 -4 48 -68 75 -111 33 -53 95 -182 95 -198 0 -11 4 -22 8 -25 9
-5 8 -61 -2 -111 -3 -16 -8 -43 -11 -60 -5 -26 -47 -164 -62 -205 -3 -8 -7
-21 -9 -27 -1 -7 -14 -44 -29 -83 -15 -39 -28 -76 -29 -83 -2 -6 -8 -25 -15
-42 -7 -16 -30 -77 -52 -135 -22 -58 -49 -124 -60 -147 -10 -24 -19 -45 -19
-47 0 -2 -8 -21 -17 -42 -9 -22 -17 -41 -18 -44 -5 -16 -78 -187 -111 -258
-19 -41 -34 -79 -34 -87 0 -7 -7 -18 -15 -25 -9 -7 -13 -15 -11 -18 3 -3 -2
-19 -11 -36 -40 -76 -44 -86 -36 -86 4 0 3 -4 -2 -8 -6 -4 -24 -36 -40 -72
-15 -36 -46 -103 -69 -150 -22 -47 -40 -87 -41 -90 0 -3 -15 -34 -33 -69 -18
-34 -32 -69 -32 -77 0 -8 -4 -14 -10 -14 -5 0 -10 -5 -10 -10 0 -6 -34 -81
-76 -167 -42 -86 -80 -166 -85 -177 -5 -12 -13 -28 -18 -36 -20 -30 -143 -289
-141 -296 1 -4 -2 -10 -7 -13 -5 -3 -19 -26 -30 -51 -12 -25 -66 -137 -121
-250 -100 -206 -141 -292 -214 -450 -22 -47 -56 -119 -75 -160 -104 -223 -262
-584 -333 -760 -23 -58 -48 -118 -55 -135 -31 -71 -44 -108 -50 -135 -1 -3 -9
-23 -19 -45 -9 -21 -18 -47 -19 -57 -2 -10 -6 -21 -10 -24 -13 -13 -7 -39 11
-55 60 -51 234 -162 265 -168 4 0 8 -1 10 -2 1 0 9 -2 17 -4 8 -2 29 -8 46
-13 53 -16 165 -7 214 18 72 36 99 74 136 188 14 42 27 84 29 92 6 30 88 278
127 385 77 215 130 360 143 390 6 17 22 57 35 90 12 33 26 69 30 80 5 11 28
67 51 125 22 58 48 121 56 140 145 345 121 311 232 325 25 3 62 8 81 10 19 3
55 7 80 10 25 3 65 7 90 11 165 21 292 27 590 27 269 -1 464 -8 482 -19 4 -3
27 -7 50 -9 81 -9 74 29 75 -393 2 -417 8 -565 27 -662 3 -14 7 -41 10 -60 21
-155 90 -350 168 -471 34 -53 105 -131 160 -176 37 -30 131 -79 178 -92 3 -1
28 -9 55 -18 59 -19 312 -27 390 -12 28 5 62 12 77 14 15 3 38 9 52 15 15 5
26 7 26 5 0 -3 16 1 35 9 19 8 35 13 35 11 0 -2 37 10 83 26 45 17 88 31 95
32 6 0 12 4 12 8 0 3 8 9 18 11 9 3 22 6 27 7 6 2 28 13 50 24 22 12 42 22 45
22 5 1 51 25 110 57 125 68 328 216 459 335 l54 49 -40 75 c-78 144 -115 209
-121 213 -4 2 -59 -21 -122 -51 -189 -90 -323 -145 -362 -148 -32 -3 -42 2
-68 31 -16 19 -37 48 -45 64 -23 44 -75 190 -69 190 4 0 2 6 -4 13 -5 6 -12
26 -15 42 -3 17 -15 75 -26 130 -11 55 -23 123 -26 150 -2 28 -7 61 -9 75 -9
49 -24 229 -31 370 -3 52 -7 365 -10 695 -9 1209 -25 1814 -60 2282 -3 37 -7
100 -10 138 -2 39 -7 90 -10 115 -4 25 -8 63 -10 85 -2 22 -6 56 -9 75 -3 19
-8 51 -10 70 -3 20 -7 47 -10 60 -3 14 -8 37 -11 53 -12 64 -17 86 -37 152
-11 39 -36 103 -56 143 -32 65 -39 72 -66 73 -17 1 -42 3 -56 4 -122 15 -771
31 -782 20z m-163 -787 c63 -293 95 -832 94 -1598 0 -287 -6 -912 -8 -932 -1
-8 -1301 -11 -1301 -4 0 2 20 46 44 98 24 51 55 118 69 148 14 30 51 109 82
175 31 66 70 147 85 180 45 97 98 211 161 343 31 67 55 122 51 122 -4 0 -2 4
4 8 9 6 54 95 54 106 0 3 25 58 56 123 66 139 171 373 221 493 19 47 41 99 48
115 22 50 125 314 125 321 0 3 6 20 14 37 15 34 27 66 32 82 21 73 75 190 90
196 40 16 73 10 79 -13z"/>
</g>
</svg>
